<?xml version="1.0" standalone="no"?><svg xmlns="http://www.w3.org/2000/svg" viewBox="0 0 1440 320"><path fill="#081595" fill-opacity="1" d="M0,288L30,261.3C60,235,120,181,180,165.3C240,149,300,171,360,165.3C420,160,480,128,540,112C600,96,660,96,720,101.3C780,107,840,117,900,144C960,171,1020,213,1080,224C1140,235,1200,213,1260,208C1320,203,1380,213,1410,218.7L1440,224L1440,0L1410,0C1380,0,1320,0,1260,0C1200,0,1140,0,1080,0C1020,0,960,0,900,0C840,0,780,0,720,0C660,0,600,0,540,0C480,0,420,0,360,0C300,0,240,0,180,0C120,0,60,0,30,0L0,0Z"></path></svg>